<?xml version="1.0" encoding="utf-8"?>
<!-- Generator: Adobe Illustrator 26.2.1, SVG Export Plug-In . SVG Version: 6.00 Build 0)  -->
<svg version="1.1" id="Ebene_1" xmlns="http://www.w3.org/2000/svg" xmlns:xlink="http://www.w3.org/1999/xlink" x="0px" y="0px"
	 viewBox="0 0 260 260" style="enable-background:new 0 0 260 260;" xml:space="preserve">
<g>
	<path d="M71.87,154.94c-1.58,1.09-2.98,2.31-4.59,3.09c-1.27,0.62-2.8,0.93-4.22,0.97c-3.38,0.08-5.49-2.42-4.99-5.76
		c0.16-1.09,0.5-2.17,0.87-3.22c0.8-2.27-0.3-3.77-2.7-3.51c-1.16,0.13-2.29,0.47-3.45,0.56c-2.31,0.19-2.77-0.28-2.82-2.59
		c0-0.2-0.03-0.4-0.05-0.65c-0.48,0.14-0.9,0.3-1.34,0.4c-0.96,0.22-1.7,0.09-2.34-0.87c-1.21-1.83-2.42-2.03-4.25-0.83
		c-1.19,0.77-2.29,1.67-3.48,2.45c-1.14,0.74-2.38,0.98-3.55,0.1c-1.12-0.85-0.92-2.06-0.62-3.22c0.39-1.52,0.93-3.01,1.25-4.54
		c0.43-2.09-0.2-2.87-2.32-3.19c-1-0.15-2.05-0.17-2.98-0.5c-2.61-0.92-3.03-3.24-0.94-5.01c1.12-0.95,2.36-1.76,3.5-2.69
		c0.85-0.69,1.27-1.45,0.66-2.63c-0.67-1.29-0.18-2,1.24-1.86c1.55,0.15,3.09,0.52,4.62,0.85c1.26,0.27,2.12,0.27,2.58-1.36
		c0.7-2.53,2.85-3.43,5.25-3.69c2.42-0.26,4.85-0.35,7.27-0.63c2.93-0.34,5.47-1.44,7.12-4.27c-1.99-0.1-3.91,0.02-5.74-0.33
		c-2.46-0.47-5-1-7.25-2.05c-4.05-1.88-4.49-4.97-1.5-8.28c0.64-0.71,1.74-1.3,1.86-2.07c0.1-0.63-0.98-1.42-1.47-2.18
		c-1.39-2.16-0.79-3.51,1.79-3.95c2.1-0.36,4.23-0.53,6.31-0.96c3.1-0.63,5.64-2.17,7.31-4.98c0.74-1.26,1-2.52,0.65-3.92
		c-0.1-0.39-0.11-0.81-0.21-1.2c-0.61-2.18,0-3.89,1.9-5.13c1.26-0.82,1.74-1.89,1.09-3.38c-0.23-0.54-0.25-1.19-0.28-1.79
		c-0.13-2.57,0.92-3.82,3.52-3.89c1.87-0.05,3.74,0.2,5.62,0.28c0.96,0.04,1.93,0.09,2.88-0.02c2.79-0.32,3.92-2.77,2.19-4.95
		c-1.35-1.7-3.1-3.08-4.48-4.76c-1.04-1.27-2.09-2.69-2.56-4.21c-0.96-3.1,0.15-5.85,2.8-7.58c2.61-1.7,5.5-3,8.32-4.36
		c2.51-1.21,5.13-2.18,7.63-3.39c2.17-1.05,3.83-2.65,4.52-5.07c0.08-0.29,0.23-0.56,0.35-0.84c2.09-4.88,4.32-6.36,9.58-6.31
		c0.81,0.01,1.62,0,2.59,0c-0.32-0.75-0.66-1.45-0.93-2.17c-1.04-2.78-0.07-4.5,2.84-4.86c2.01-0.25,4.04-0.28,6.05-0.55
		c3.34-0.43,5.69-2.24,7.02-5.36c0.34-0.79,0.69-1.58,1.07-2.35c0.45-0.92,1.19-1.28,2.23-1.25c1.16,0.04,1.62,0.51,1.57,1.7
		c-0.12,2.76,0.79,3.74,3.54,4.24c2.23,0.4,4.32-0.04,6.4-0.79c0.95-0.34,1.91-0.7,2.9-0.88c1.11-0.21,2.05,0.22,2.42,1.35
		c0.38,1.15-0.51,1.66-1.34,2.05c-1.05,0.49-2.18,0.83-3.24,1.29c-1.27,0.54-2.62,1.08-2.63,2.79c-0.01,1.92,1.18,3.8,3.04,4.07
		c1.96,0.29,4.07,0.34,5.98-0.1c2.34-0.54,4.53-1.69,6.79-2.58c0.19-0.07,0.35-0.2,0.53-0.29c4.04-2.09,6.02-0.87,5.83,3.65
		c-0.09,2.08-0.45,4.17-0.29,6.22c0.12,1.49,0.53,3.22,1.44,4.33c2.5,3.05,7.18,2.36,8.74-1.3c0.86-2.03,2.84-2.49,5.11-2.14
		c2.27,0.36,4.08,2.04,4.13,4.04c0.04,1.45-0.29,2.91-0.47,4.36c-0.2,1.55-0.64,3.11-0.58,4.65c0.12,3.32,2.22,5.45,4.88,7.08
		c3.91,2.4,8.3,3.46,12.68,4.52c2.85,0.69,5.73,1.32,8.55,2.14c3.69,1.08,4.98,2.95,5.11,6.78c0.02,0.52,0.46,1.1,0.85,1.51
		c0.55,0.58,1.28,0.99,1.86,1.55c0.26,0.25,0.47,0.73,0.43,1.07c-0.13,1-0.2,2.09-0.67,2.93c-0.54,0.95-1.37,1.9-2.31,2.4
		c-1.08,0.57-2.42,0.66-3.65,0.96c0.24,2.04,1.54,3.59,3.52,4.09c0.59,0.15,1.2,0.21,1.79,0.37c1.45,0.39,2.22,1.57,2.08,3.1
		c-0.15,1.6-1.06,2.66-2.61,2.61c-1.5-0.06-3-0.42-4.47-0.74c-1.63-0.35-3.22-0.91-4.86-1.18c-0.73-0.12-1.68,0.04-2.29,0.44
		c-1.28,0.84-0.97,2.88,0.6,3.35c2.02,0.6,4.14,0.9,6.24,1.21c3.21,0.47,6.44,0.76,9.64,1.28c1.12,0.18,2.26,0.65,3.23,1.25
		c2.42,1.5,2.23,4.44-0.32,5.65c-1.14,0.54-2.38,0.88-3.53,1.39c-2.05,0.91-2.42,2.15-1.39,4.16c1,1.97,2.43,3.21,4.76,3.17
		c0.86-0.01,1.72,0.09,2.58,0.14c2.94,0.17,3.11,0.29,4.02,3.1c0.64,2,1.94,3.38,3.79,4.33c2.27,1.17,2.56,2.03,1.59,4.4
		c-0.36,0.89-0.86,1.72-1.27,2.59c-0.71,1.54-0.75,3.09,0.35,4.45c1.55,1.91,1.79,4.01,1.21,6.31c-0.19,0.74-0.36,1.48-0.56,2.21
		c-0.69,2.49-0.07,4.58,1.79,6.37c1.71,1.65,1.67,2.68-0.07,4.29c-2.2,2.02-2.68,4.68-2.84,7.47c-0.05,0.96-0.01,1.94-0.17,2.88
		c-0.37,2.23-1.51,3.34-3.79,3.43c-1.91,0.07-3.86-0.02-5.75-0.3c-1.93-0.28-3.49,0.24-4.92,1.44c-0.82,0.68-1.6,1.41-2.42,2.08
		c-1.43,1.18-2.93,1.91-4.63,0.5c-0.12,0.14-0.23,0.21-0.23,0.27c0.07,3.6-1.86,5.09-5.46,4.21c-0.58-0.14-1.2-0.34-1.68-0.68
		c-1.7-1.21-3.51-1.13-5.39-0.65c-0.59,0.15-1.17,0.35-1.76,0.49c-2.02,0.46-2.41,0.24-3.16-1.65c-0.59-1.49-1.67-2.42-3.27-2.62
		c-1.26-0.16-2.52-0.19-3.79-0.3c-1.9-0.15-2.84-0.89-3.05-2.75c-0.12-1.13-0.64-1.38-1.6-1.52c-6.51-0.94-11.88,1.28-16.31,5.95
		c-5.02,5.29-7.86,11.79-9.79,18.69c-4.68,16.67-5.31,33.5-1.42,50.42c0.56,2.44,1.72,4.75,2.6,7.12c0.55,1.47,1.26,2.9,1.61,4.41
		c0.52,2.31-0.31,3.46-2.63,3.91c-1.24,0.24-2.51,0.38-3.77,0.38c-7,0.01-14.01,0-21.01-0.07c-1.25-0.01-2.53-0.21-3.74-0.53
		c-1.79-0.48-2.38-1.49-1.76-3.21c0.81-2.23,1.7-4.47,2.86-6.53c4.38-7.82,6.59-16.33,8.13-25.05c2.15-12.14,3.01-24.37,2.45-36.69
		c-0.27-5.94-0.87-11.86-3.03-17.47c-0.66-1.73-1.6-3.41-2.72-4.88c-1.83-2.4-4.44-2.96-7.22-1.79c-1.02,0.43-2.03,0.97-2.9,1.64
		c-4.72,3.65-9.91,4.62-15.64,2.99c-1.16-0.33-2.38-0.49-3.59-0.58c-2.41-0.18-4.47,0.59-6.11,2.45c-1.1,1.25-2.23,2.52-3.5,3.59
		c-1.7,1.43-3.07,1.37-4.8-0.01c-1.68-1.33-3.55-2.13-5.68-2.31c-4.83-0.41-5.51-0.97-6.77-5.63
		C71.98,155.28,71.92,155.09,71.87,154.94z M156.4,138.55c-1.63,0.36-3.19,0.67-4.72,1.05c-1.19,0.3-2.09,0.95-2.55,2.18
		c-0.38,1.03-1.04,1.34-2.11,1.08c-1.26-0.3-2.31-1.01-2.92-2.13c-0.43-0.77-0.81-0.66-1.38-0.31c-1.66,1-2.52,2.59-3.03,4.35
		c-1.47,5.13-1.22,10.22,0.51,15.26c0.14,0.41,0.36,0.79,0.63,1.36c4.43-7.6,9.81-13.93,18.22-17.14
		C156.96,142.75,156.27,140.84,156.4,138.55z"/>
</g>
</svg>
