<?xml version="1.0" standalone="no"?>
<!DOCTYPE svg PUBLIC "-//W3C//DTD SVG 20010904//EN"
 "http://www.w3.org/TR/2001/REC-SVG-20010904/DTD/svg10.dtd">
<svg version="1.0" xmlns="http://www.w3.org/2000/svg"
 width="700.000000pt" height="700.000000pt" viewBox="0 0 700.000000 700.000000"
 preserveAspectRatio="xMidYMid meet">
<metadata>
Created by potrace 1.14, written by Peter Selinger 2001-2017
</metadata>
<g transform="translate(0.000000,700.000000) scale(0.100000,-0.100000)"
fill="#000000" stroke="none">
<path d="M3388 6707 c-9 -6 -27 -34 -39 -62 -59 -132 -118 -166 -304 -179 -89
-6 -122 -19 -137 -51 -11 -25 -8 -48 18 -125 4 -13 -6 -16 -62 -18 -90 -3
-137 -17 -179 -53 -32 -29 -95 -137 -95 -166 0 -32 -86 -99 -175 -137 -144
-61 -326 -152 -373 -186 -56 -40 -85 -103 -77 -163 9 -59 45 -116 136 -215 89
-96 100 -129 54 -172 -26 -25 -53 -27 -232 -20 -72 3 -87 1 -110 -17 -27 -20
-28 -24 -28 -109 l0 -89 -44 -42 -43 -43 7 -72 c11 -102 9 -114 -25 -163 -49
-71 -112 -102 -253 -126 -146 -25 -172 -38 -163 -82 4 -17 15 -40 25 -52 31
-34 29 -48 -14 -97 -79 -89 -76 -163 10 -214 62 -36 212 -74 297 -76 38 -1 68
-6 68 -12 0 -20 -72 -75 -118 -90 -26 -8 -87 -18 -137 -21 -138 -10 -181 -18
-215 -43 -14 -10 -32 -33 -41 -50 -34 -66 -27 -64 -157 -41 -84 15 -97 8 -80
-43 14 -39 7 -50 -55 -97 -74 -54 -100 -91 -88 -125 13 -33 48 -55 102 -62
101 -14 113 -37 80 -157 -27 -94 -27 -122 1 -141 36 -26 65 -19 143 34 41 28
84 50 97 50 12 0 37 -14 54 -31 30 -29 57 -37 93 -28 8 3 14 -6 16 -24 8 -60
24 -64 180 -43 11 2 28 -1 38 -6 31 -16 35 -48 16 -113 -63 -203 104 -284 301
-146 l58 41 7 -32 c12 -52 41 -103 68 -115 13 -6 51 -14 83 -18 75 -10 129
-29 169 -60 71 -53 103 -45 199 54 38 39 85 78 103 86 40 19 120 18 208 -2
159 -37 251 -17 425 93 108 68 179 66 243 -6 91 -99 140 -268 162 -555 5 -65
5 -434 0 -505 -9 -131 -16 -210 -19 -227 -2 -10 -7 -49 -11 -88 -4 -38 -9 -77
-10 -86 -2 -9 -6 -34 -9 -55 -4 -22 -13 -75 -22 -119 -9 -44 -18 -93 -21 -110
-9 -53 -72 -265 -99 -333 -15 -37 -53 -119 -84 -182 -76 -151 -98 -215 -84
-238 28 -45 48 -47 444 -47 340 0 378 2 408 18 17 10 32 23 33 30 0 6 2 21 4
31 3 16 -26 107 -54 171 -36 80 -69 191 -86 290 -33 189 -40 267 -40 480 0
296 25 474 106 765 60 215 148 379 269 500 114 115 214 160 358 160 77 0 112
-11 112 -35 0 -31 24 -65 54 -74 17 -5 59 -12 94 -15 75 -7 108 -27 128 -77
19 -45 38 -51 107 -33 72 19 116 17 160 -6 48 -26 114 -35 150 -21 28 11 53
57 51 93 -1 14 6 16 46 11 45 -5 49 -4 111 49 73 62 109 77 165 71 21 -2 74
-4 116 -5 120 -2 143 21 152 151 8 106 24 156 65 203 54 62 57 75 23 117 -65
81 -74 123 -46 231 18 72 13 119 -20 170 -36 56 -38 79 -10 145 52 123 50 143
-12 175 -53 28 -84 63 -106 122 -11 32 -28 63 -38 68 -9 5 -52 11 -97 14 -118
8 -137 19 -172 96 -29 65 -17 81 106 131 63 25 86 56 78 102 -10 53 -73 87
-185 102 -25 3 -56 8 -70 10 -14 2 -51 7 -82 10 -49 5 -97 13 -200 32 -60 11
-76 77 -24 101 27 12 44 10 161 -18 120 -29 135 -30 171 -15 34 14 40 28 35
84 -3 34 -24 51 -84 67 -34 9 -61 24 -79 44 -42 46 -37 65 20 80 71 17 116 67
123 137 3 27 -4 40 -38 75 -31 32 -42 53 -45 83 -5 45 -27 92 -54 117 -25 22
-76 39 -269 87 -258 65 -345 97 -426 162 -80 63 -100 135 -76 271 21 114 16
162 -18 198 -60 63 -188 55 -214 -13 -5 -12 -23 -35 -41 -52 -27 -26 -38 -30
-90 -30 -53 0 -63 3 -90 31 -35 35 -61 117 -55 179 4 51 7 132 6 168 -1 40
-44 79 -79 74 -15 -3 -74 -25 -132 -50 -125 -53 -154 -60 -243 -59 -82 1 -123
24 -132 76 -15 75 -11 79 118 137 54 24 67 34 67 52 0 13 -5 28 -12 35 -15 15
-68 16 -105 1 -98 -38 -201 -43 -253 -13 -30 19 -40 39 -40 91 0 17 -5 35 -10
38 -21 13 -57 14 -72 2z m822 -3461 c0 -33 24 -88 49 -110 20 -18 20 -19 -47
-51 -128 -62 -259 -184 -361 -337 -33 -49 -62 -84 -66 -79 -13 22 -36 108 -42
161 -21 163 16 325 84 377 l32 25 28 -30 c34 -36 63 -52 89 -47 10 2 22 4 25
4 4 1 12 14 19 30 9 24 48 51 74 53 3 1 27 7 53 14 64 17 63 17 63 -10z"/>
</g>
</svg>
